<?xml version="1.0" encoding="UTF-8" standalone="no"?>
<svg
   viewBox="0 0 1452.7862 720"
   height="720"
   width="1452.7863"
   xml:space="preserve"
   id="svg2"
   version="1.1"
   sodipodi:docname="grupo-sanborns_1.svg"
   inkscape:version="1.1 (c68e22c387, 2021-05-23)"
   xmlns:inkscape="http://www.inkscape.org/namespaces/inkscape"
   xmlns:sodipodi="http://sodipodi.sourceforge.net/DTD/sodipodi-0.dtd"
   xmlns="http://www.w3.org/2000/svg"
   xmlns:svg="http://www.w3.org/2000/svg"
   xmlns:rdf="http://www.w3.org/1999/02/22-rdf-syntax-ns#"
   xmlns:cc="http://creativecommons.org/ns#"
   xmlns:dc="http://purl.org/dc/elements/1.1/"><sodipodi:namedview
     id="namedview22"
     pagecolor="#ffffff"
     bordercolor="#666666"
     borderopacity="1.0"
     inkscape:pageshadow="2"
     inkscape:pageopacity="0.0"
     inkscape:pagecheckerboard="0"
     showgrid="false"
     inkscape:zoom="5.0005877"
     inkscape:cx="49.894136"
     inkscape:cy="-1.8997767"
     inkscape:window-width="1920"
     inkscape:window-height="1017"
     inkscape:window-x="1912"
     inkscape:window-y="-8"
     inkscape:window-maximized="1"
     inkscape:current-layer="svg2"
     fit-margin-top="0"
     fit-margin-left="0"
     fit-margin-right="0"
     fit-margin-bottom="0" /><metadata
     id="metadata8"><rdf:RDF><cc:Work
         rdf:about=""><dc:format>image/svg+xml</dc:format><dc:type
           rdf:resource="http://purl.org/dc/dcmitype/StillImage" /></cc:Work></rdf:RDF></metadata><defs
     id="defs6" /><g
     transform="matrix(17.083641,0,0,-17.083641,-4.8892445e-4,719.99998)"
     id="g10"><g
       transform="scale(0.1)"
       id="g12"><path
         id="path14"
         style="fill:#d91920;fill-opacity:1;fill-rule:nonzero;stroke:none"
         d="M 663.52,315 C 678.793,245.039 586.762,165.566 457.992,137.5 329.223,109.422 212.48,143.379 197.227,213.34 c -15.25,69.961 76.777,149.426 205.55,177.5 128.75,28.066 245.508,-5.887 260.743,-75.84" /><path
         id="path16"
         style="fill:#ffffff;fill-opacity:1;fill-rule:nonzero;stroke:none"
         d="m 535.473,265.195 c -48.809,24.981 -105.379,23.485 -163.774,23.485 -12.969,-0.125 -23.949,0.773 -27.301,7.687 -2.878,7.235 0.918,13.145 6.704,17.715 25.191,20.234 54.687,31.613 82.832,43.074 51.765,-25.32 131.265,-26.289 175.836,13.918 9.628,9.024 17.246,23.489 9.082,36.406 -4.805,6.68 -12.051,12.286 -20.606,12.958 -48.008,3.664 -93.797,-3.153 -136.98,-11.063 -63.114,-11.102 -120.567,-36.543 -169.118,-74.707 -19.152,-17.707 -31.671,-44.98 -20.093,-69.922 5.777,-12.461 16.933,-19.473 27.777,-21.055 49.859,-7.175 102.531,-7.675 150.856,-18.203 15.226,-3.652 38.671,-6.316 42.148,-24.425 0.977,-13.915 -13.418,-24.938 -24.883,-28.282 -53.164,-20.593 -125.035,-23.484 -181.543,-8.633 -6.328,1.36 -16.472,6.379 -20.094,0.95 -2.402,-3.828 -4.343,-7.864 -1.957,-13.36 7.153,-13.652 18.313,-19.832 33.079,-22.539 74.261,-11.523 159.031,-10.574 218.425,32.071 24.883,19.636 48.379,45.937 40.246,79.988 -2.394,10.117 -10.429,18.156 -20.636,23.937 M 476.617,369.18 c 21.727,13.008 41.434,14.355 62.215,10.031 -0.918,-4.75 -6.699,-7.473 -10.945,-8.645 -16.262,-4.375 -29.766,-8.074 -48.469,-6.628 -3.164,0.359 -5.195,3.609 -2.801,5.242" /><path
         id="path18"
         style="fill:#656263;fill-opacity:1;fill-rule:nonzero;stroke:none"
         d="m 61.1602,86.7188 c 0.0742,0 -0.0196,0.1953 -0.3125,0.5859 -0.2618,0.3711 -0.3789,0.5664 -0.293,0.5664 -1.4375,1.6914 -2.6836,2.8398 -3.7149,3.4648 -1.0312,0.5977 -1.6367,0.9688 -1.7929,1.086 l -1.0742,0.539 c -1.8438,0.8672 -3.7383,1.5 -5.6914,1.8829 -1.9493,0.3828 -3.7618,0.625 -5.4297,0.7343 -2.0039,0.125 -3.9024,0.125 -5.7539,0 -3.9922,-0.2265 -7.336,-0.8828 -10.0586,-1.9648 -2.7188,-1.0938 -4.9063,-2.2656 -6.5821,-3.5547 -1.9922,-1.5234 -3.5937,-3.1836 -4.7851,-5 -2.625,-3.8008 -4.3946,-7.5195 -5.2461,-11.1328 -0.88674,-3.6328 -1.32814,-6.9141 -1.32814,-9.832 0,-3.3907 0.40234,-6.6133 1.19924,-9.6602 0.7929,-2.8516 1.7929,-5.3125 2.9922,-7.3633 1.1875,-2.039 2.3515,-3.7305 3.4687,-5.0781 1.2656,-1.582 2.5938,-2.9102 3.9492,-4.0313 2.0743,-1.6914 4.0821,-3 6.0391,-3.9062 1.9453,-0.8906 3.6914,-1.5547 5.207,-1.9649 1.7578,-0.5273 3.4336,-0.7929 5.0352,-0.7929 3.7383,-0.3008 6.8555,-0.3203 9.3398,-0.086 2.4492,0.2266 4.6094,0.586 6.4453,1.0469 0.1563,0.0664 0.9571,0.3672 2.3985,0.9258 1.4179,0.5469 2.8984,1.6797 4.4258,3.3789 l 0.7148,1.1406 c 0.3203,0.6367 0.5664,1.7578 0.7227,3.3711 0.1601,1.6016 0.2226,3.2422 0.164,4.9102 -0.0234,1.664 -0.164,3.1562 -0.4023,4.4765 -0.2422,1.3164 -0.5586,1.9688 -0.9727,1.9688 H 45.9531 v 4.4062 h 12.5508 l 7.6719,0.0782 c 0.9687,0.0586 1.6523,0 2.0937,-0.1953 0.4414,-0.2149 0.7422,-0.4883 0.8985,-0.8516 0.164,-0.3516 0.2539,-0.7031 0.2929,-1.043 0.0391,-0.3515 0.0782,-0.6133 0.0782,-0.7929 V 26.6719 h -9.7149 v 3.4258 C 55.9141,28.1641 52.1094,26.9531 48.418,26.4531 44.6953,25.957 41.3555,25.7891 38.4023,25.9766 c -3.4218,0.2265 -6.7343,0.75 -9.9179,1.5703 -4.3086,1.164 -7.9375,2.7656 -10.8867,4.789 -2.9532,2 -5.3946,3.9844 -7.3008,5.9063 -2.25002,2.2851 -4.06643,4.6797 -5.51174,7.1875 -1.35938,2.168 -2.39453,4.3359 -3.10938,6.4844 C 0.957031,54.082 0.476563,56.1914 0.242188,58.2344 0,60.2813 -0.0585938,62.2656 0.0585938,64.1797 0.191406,66.1133 0.410156,67.9297 0.726563,69.6172 1.51172,73.5938 2.875,77.3633 4.78516,80.918 c 1.44531,2.4609 3.05078,4.6211 4.84765,6.4961 1.79299,1.8632 3.69139,3.4765 5.68749,4.8125 1.9922,1.3476 3.9844,2.4609 5.9922,3.3281 1.9922,0.8828 3.9297,1.6016 5.8555,2.1992 4.3906,1.2774 8.9336,1.9414 13.6406,2.0117 2.3945,0 4.4687,-0.1093 6.2109,-0.3125 1.7578,-0.1953 3.2422,-0.4492 4.4493,-0.7422 1.3515,-0.2812 2.5039,-0.664 3.4609,-1.125 3.9922,-1.0429 7.2461,-2.5859 9.8047,-4.6367 2.5508,-2.0429 4.6289,-4.0351 6.2187,-5.9648 l -9.7929,-0.2656" /><path
         id="path20"
         style="fill:#656263;fill-opacity:1;fill-rule:nonzero;stroke:none"
         d="m 100.859,74.5117 c -3.3199,-0.7031 -6.0387,-1.6601 -8.1988,-2.8906 -2.5547,-1.4727 -4.6329,-3.2422 -6.25,-5.3516 l 0.2304,-39.9726 h -9.2695 l -0.2422,49.9726 9.4336,0.0899 -0.1523,-5.2656 c 2.6562,2.0507 5.5273,3.5351 8.6367,4.4609 3.1211,0.9375 5.9881,1.5547 8.6251,1.8594 3.105,0.3398 6.226,0.3984 9.336,0.1836 0.64,-0.0664 1.25,-0.1368 1.859,-0.1836 0.602,-0.0703 1.168,-0.1563 1.719,-0.2657 l -3.707,-2.8906 c -4.695,0.8789 -8.711,0.957 -12.02,0.2539" /><path
         id="path22"
         style="fill:#656263;fill-opacity:1;fill-rule:nonzero;stroke:none"
         d="m 121.758,76.8047 9.676,0.0781 c -0.071,-4.6094 -0.125,-8.9336 -0.125,-12.9687 V 58.7422 53.75 49.4063 c 0,-1.3204 0.062,-2.3555 0.171,-3.1172 0,-1.9922 0.278,-3.9453 0.825,-5.8672 0.41,-1.6328 1.129,-3.3516 2.156,-5.1406 1.023,-1.7735 2.473,-3.25 4.297,-4.4219 1.281,-0.8203 2.84,-1.4922 4.664,-2.0235 1.586,-0.457 3.547,-0.789 5.902,-0.9648 2.352,-0.168 5.192,0.0391 8.547,0.6133 1.52,0.2344 3.106,0.7148 4.762,1.4179 1.445,0.6368 3.066,1.543 4.836,2.6758 1.797,1.1328 3.652,2.6758 5.566,4.6016 l 0.117,39.7031 h 9.305 l 0.109,-50.2226 h -9.992 l 0.129,4.2773 c -0.965,-0.625 -2.051,-1.25 -3.226,-1.8359 -1.051,-0.4688 -2.235,-0.9688 -3.61,-1.4766 -1.336,-0.5352 -2.824,-0.9453 -4.414,-1.2383 -2.226,-0.4101 -4.5,-0.7226 -6.805,-0.957 -2.011,-0.1758 -4.156,-0.2422 -6.46,-0.2149 -2.321,0.0196 -4.52,0.3321 -6.59,0.918 -1.52,0.1641 -3.008,0.5274 -4.539,1.0469 -1.352,0.4766 -2.801,1.0625 -4.309,1.8047 -1.516,0.7226 -2.949,1.7265 -4.305,3.0078 -1.261,1.0625 -2.351,2.4297 -3.215,4.1406 -0.894,1.4453 -1.648,3.3399 -2.281,5.6445 -0.625,2.3165 -0.969,5.1954 -0.969,8.6446 l -0.222,26.3828" /><path
         id="path24"
         style="fill:#656263;fill-opacity:1;fill-rule:nonzero;stroke:none"
         d="m 194.949,37.4141 -0.469,39.0234 h 8.829 v -4.6797 c 1.425,0.9375 3.066,1.75 4.914,2.461 1.582,0.6328 3.402,1.2109 5.433,1.6992 2.047,0.4883 4.336,0.7539 6.875,0.7539 3.676,0.125 7.266,-0.3242 10.774,-1.3203 3.047,-0.8789 6.211,-2.3516 9.519,-4.461 3.317,-2.1015 6.235,-5.2656 8.801,-9.4648 1.027,-2.2266 1.703,-4.5899 2.023,-7.0977 0.25,-2.1601 0.118,-4.5937 -0.351,-7.2773 -0.477,-2.6836 -1.719,-5.4414 -3.719,-8.2227 -1.031,-1.4765 -2.265,-2.9218 -3.703,-4.3047 -1.281,-1.164 -2.895,-2.414 -4.863,-3.7226 -1.946,-1.3086 -4.301,-2.4414 -7.11,-3.3789 -1.757,-0.586 -3.632,-0.9961 -5.625,-1.2188 -1.746,-0.2265 -3.722,-0.3515 -5.918,-0.3515 -2.179,0 -4.535,0.3203 -7.011,0.9648 -0.86,0.1563 -1.817,0.4102 -2.864,0.6914 -0.871,0.3047 -1.929,0.6367 -3.16,1.0078 -1.246,0.3907 -2.59,0.8985 -4.015,1.5313 V 0 h -8.129 l -0.117,34.6094 z m 39.481,-2.4532 c 2.785,2.5782 4.66,5.2149 5.625,7.9297 0.961,2.7149 1.504,5.2539 1.672,7.586 0.156,2.6875 -0.168,5.3515 -0.969,7.9922 -1.028,3.7968 -2.793,6.6875 -5.262,8.6601 -2.48,1.9922 -5.039,3.4375 -7.656,4.3086 -3.106,1.0547 -6.457,1.5781 -10.059,1.5781 -2.707,-0.2343 -4.968,-0.7578 -6.82,-1.5781 -1.836,-0.8203 -3.305,-1.7305 -4.414,-2.7266 -1.371,-1.0937 -2.445,-2.3242 -3.238,-3.6718 V 63.8203 33.7305 c 2.546,-1.5117 4.988,-2.5899 7.304,-3.2032 2.301,-0.6132 4.297,-1.0039 5.989,-1.1835 1.996,-0.2227 3.824,-0.2032 5.496,0.0898 1.828,0.1172 3.496,0.4687 4.972,1.0547 1.465,0.5859 2.77,1.1992 3.887,1.8359 1.27,0.7617 2.422,1.6406 3.473,2.6367" /><path
         id="path26"
         style="fill:#656263;fill-opacity:1;fill-rule:nonzero;stroke:none"
         d="m 283.406,26.4648 c -3.605,0.5274 -6.992,1.4649 -10.179,2.8008 -3.2,1.3399 -5.985,3.0977 -8.403,5.2657 -2.398,2.1562 -4.328,4.6875 -5.793,7.5859 -1.484,2.9023 -2.258,6.1445 -2.336,9.7656 -0.09,3.5664 0.672,6.9141 2.266,10.0508 1.594,3.1133 3.801,5.8477 6.586,8.1836 2.801,2.3437 6.074,4.1797 9.824,5.5391 3.75,1.3359 7.754,1.9804 11.977,1.9218 1.527,0 2.777,-0.0586 3.773,-0.1758 0.988,-0.1171 1.891,-0.2343 2.695,-0.3515 0.965,-0.1758 1.813,-0.3633 2.571,-0.5664 0.765,-0.1953 1.664,-0.4492 2.691,-0.7422 l 0.141,-0.0859 c 0.14,-0.0625 1.199,-0.5469 3.16,-1.4571 1.945,-0.8984 4.101,-2.3242 6.41,-4.2461 2.313,-1.9375 4.402,-4.3672 6.289,-7.3281 1.875,-2.9453 2.852,-6.5234 2.93,-10.7422 0.066,-3.3281 -0.61,-6.4922 -2.031,-9.4609 -1.446,-2.9766 -3.411,-5.6055 -5.934,-7.8906 -2.516,-2.2735 -5.457,-4.1485 -8.855,-5.6055 -3.395,-1.4727 -7.047,-2.3438 -10.95,-2.6289 z m -17.289,25.9571 c 0,-3.1446 0.551,-6.1328 1.672,-8.9453 1.121,-2.793 2.649,-5.2735 4.559,-7.3907 1.929,-2.1406 4.156,-3.8515 6.699,-5.1093 2.574,-1.25 5.324,-1.8828 8.285,-1.8828 2.957,0 5.734,0.6328 8.332,1.8828 2.598,1.2578 4.859,2.9687 6.762,5.1093 1.918,2.1172 3.441,4.5977 4.554,7.3907 1.129,2.8125 1.68,5.8007 1.68,8.9453 0,3.1562 -0.551,6.1015 -1.68,8.8594 -1.113,2.7421 -2.636,5.164 -4.554,7.2343 -1.903,2.0703 -4.164,3.711 -6.762,4.9219 -2.598,1.1797 -5.375,1.7891 -8.332,1.7891 -2.961,0 -5.711,-0.6094 -8.285,-1.7891 -2.543,-1.2109 -4.77,-2.8516 -6.699,-4.9219 -1.91,-2.0703 -3.438,-4.4922 -4.559,-7.2343 -1.121,-2.7579 -1.672,-5.7032 -1.672,-8.8594" /><path
         id="path28"
         style="fill:#656263;fill-opacity:1;fill-rule:nonzero;stroke:none"
         d="m 402.254,87.7656 -0.227,0.5157 c -0.093,0.1875 -0.211,0.3906 -0.371,0.625 -0.633,0.8671 -1.57,1.7382 -2.808,2.5859 -1.243,0.832 -2.672,1.5937 -4.317,2.2383 -1.625,0.6445 -3.371,1.1914 -5.254,1.6601 -1.875,0.4688 -3.765,0.7617 -5.683,0.8789 -2.071,0.2344 -4.145,0.2344 -6.211,0 -1.848,-0.1757 -3.785,-0.5664 -5.813,-1.1328 -2.039,-0.5859 -3.894,-1.5625 -5.574,-2.8906 -1.504,-1.1211 -2.633,-2.4102 -3.359,-3.8672 -0.629,-1.2305 -0.949,-2.7226 -0.949,-4.4726 0,-1.75 0.808,-3.6524 2.39,-5.7032 0.715,-0.8672 1.594,-1.75 2.649,-2.625 0.875,-0.7539 2.023,-1.5859 3.453,-2.4609 1.441,-0.8711 3.187,-1.6328 5.269,-2.2774 1.207,-0.5859 2.821,-1.289 4.918,-2.0976 1.746,-0.7149 4.012,-1.5938 6.821,-2.6875 2.792,-1.0625 6.218,-2.3438 10.296,-3.8086 3.258,-1.2227 6.215,-2.7461 8.84,-4.5508 2.309,-1.5234 4.418,-3.5078 6.36,-5.918 1.894,-2.4414 2.968,-5.3125 3.214,-8.6445 0,-1.414 -0.16,-2.8281 -0.48,-4.2969 -0.391,-1.2265 -1,-2.5273 -1.797,-3.8945 -0.785,-1.3867 -2.113,-2.5586 -3.949,-3.5547 -1.039,-0.7031 -2.262,-1.3476 -3.711,-1.9414 -1.188,-0.5195 -2.691,-1.0078 -4.481,-1.4765 -1.789,-0.4688 -3.816,-0.8516 -6.054,-1.1407 -4.207,-0.6484 -8.492,-0.9492 -12.785,-0.8828 -3.676,0.0703 -7.586,0.4297 -11.735,1.0938 -4.144,0.6757 -7.98,1.9765 -11.492,3.9062 -1.027,0.5313 -2.062,1.2617 -3.101,2.1875 -0.883,0.8203 -1.84,1.8594 -2.875,3.1172 -1.051,1.2578 -1.965,2.8203 -2.747,4.6953 l 10.036,-0.2617 c 0,-0.293 0.109,-0.7695 0.296,-1.457 0.211,-0.6719 0.575,-1.4141 1.09,-2.2344 0.512,-0.8008 1.207,-1.6602 2.086,-2.5313 0.887,-0.875 2.008,-1.6796 3.344,-2.3711 1.848,-0.832 4.078,-1.4648 6.711,-1.9335 2.238,-0.4102 5.031,-0.6329 8.387,-0.711 3.343,-0.0508 7.3,0.3008 11.836,1.0625 3.351,0.8203 6.019,2.1016 8.023,3.8594 0.805,0.7578 1.508,1.6406 2.156,2.625 0.621,0.9961 1.055,2.1484 1.25,3.4766 0.203,1.3085 0.078,2.7929 -0.351,4.4726 -0.434,1.6602 -1.254,3.543 -2.45,5.6445 -0.972,1.2813 -2.21,2.5704 -3.714,3.8477 -1.368,1.1133 -3.086,2.3047 -5.207,3.5664 -2.118,1.2578 -4.809,2.4375 -8.086,3.543 -3.668,1.3476 -7.09,2.6367 -10.278,3.8554 -1.359,0.5391 -2.715,1.0664 -4.078,1.6329 -1.351,0.5468 -2.644,1.0859 -3.887,1.5703 -1.234,0.5 -2.367,0.9765 -3.363,1.457 -0.98,0.457 -1.769,0.8789 -2.32,1.2305 -1.445,0.8672 -2.723,1.8672 -3.824,2.9687 -0.957,0.9961 -1.914,2.1953 -2.821,3.5938 -0.922,1.4062 -1.464,3.0468 -1.613,4.914 -0.086,0.8672 -0.039,2.1641 0.125,3.8555 0.149,1.6914 0.902,3.418 2.207,5.1758 1.313,1.7578 3.406,3.3515 6.289,4.8047 2.86,1.4453 6.926,2.4023 12.195,2.8711 2.243,0.3007 4.59,0.4179 7.067,0.3711 2.074,-0.0586 4.453,-0.254 7.117,-0.6172 2.676,-0.3516 5.371,-0.9766 8.066,-1.9219 1.926,-0.5664 3.688,-1.3281 5.274,-2.2656 1.367,-0.8203 2.695,-1.836 4.016,-3.0274 1.312,-1.1992 2.214,-2.6054 2.691,-4.2461 h -6.707" /><path
         id="path30"
         style="fill:#656263;fill-opacity:1;fill-rule:nonzero;stroke:none"
         d="m 476.918,26.8047 h -8.68 L 468.207,30.5 c -3.191,-1.3594 -6.562,-2.3359 -10.059,-2.9531 -3.503,-0.6133 -6.738,-0.9844 -9.687,-1.0938 -3.438,-0.2343 -6.824,-0.2031 -10.172,0.0899 -1.601,0.1172 -3.051,0.332 -4.367,0.6523 -1.317,0.3242 -2.457,0.6563 -3.414,1.0156 -1.125,0.3438 -2.125,0.7539 -2.992,1.2227 -1.516,0.7617 -2.688,1.582 -3.532,2.4609 -0.82,0.8711 -1.457,1.7188 -1.855,2.5391 -0.469,0.9375 -0.754,1.875 -0.832,2.793 -0.242,2.6484 0.406,4.8906 1.965,6.7578 1.566,1.875 3.328,3.3984 5.332,4.5703 2.312,1.3984 4.984,2.5391 8.011,3.418 3.36,0.9961 6.25,1.875 8.692,2.6367 2.422,0.75 4.453,1.3867 6.035,1.914 1.914,0.5938 3.477,1.0743 4.668,1.5039 1.582,0.5743 2.949,1.211 4.063,1.8868 1.132,0.664 2.089,1.2578 2.871,1.7851 0.879,0.6446 1.632,1.25 2.277,1.8477 1.355,1.2265 2.098,2.3984 2.215,3.5039 0.117,1.1133 -0.02,2.1094 -0.418,2.9687 -0.391,1.0039 -1.086,1.9414 -2.024,2.8125 -1.453,1.0547 -3.046,1.8164 -4.804,2.293 -1.758,0.4609 -3.387,0.7734 -4.903,0.9609 -1.746,0.2227 -3.515,0.2891 -5.261,0.1719 -3.528,-0.289 -6.34,-0.8867 -8.508,-1.7461 -2.149,-0.8789 -3.824,-1.7851 -5.016,-2.7226 -1.433,-1.0547 -2.445,-2.2188 -2.988,-3.5078 -0.32,-0.5274 -0.539,-1.1016 -0.664,-1.711 -0.121,-0.6133 -0.219,-1.1601 -0.293,-1.6289 -0.086,-0.5742 -0.156,-1.1445 -0.246,-1.6601 -1.512,-0.0586 -2.918,-0.086 -4.188,-0.086 h -3.109 c -0.957,0 -1.52,0.0274 -1.664,0.086 0.144,0.2929 0.277,0.6054 0.348,0.957 0.078,0.3515 0.195,0.7031 0.359,1.0742 0.473,1.0938 1.226,2.1172 2.277,3.0547 1.281,1.3984 2.785,2.7266 4.539,3.9375 0.961,0.6562 1.918,1.2187 2.875,1.7187 0.969,0.4883 1.871,0.918 2.754,1.2696 0.969,0.3515 1.906,0.6758 2.867,0.9648 2.227,0.6953 4.493,1.1641 6.778,1.3985 2.258,0.2343 4.308,0.3828 6.152,0.4375 2.168,0.0703 4.219,0 6.211,-0.1719 4.328,-0.5196 7.688,-1.4961 10.109,-2.9297 2.43,-1.4375 4.246,-2.9219 5.438,-4.4453 1.445,-1.8047 2.305,-3.7305 2.617,-5.7735 z m -8.836,32.3555 c -1.906,-1.1133 -4.055,-2.1211 -6.398,-3.0196 -2.352,-0.9062 -4.571,-1.6875 -6.641,-2.332 -2.391,-0.7617 -4.793,-1.4844 -7.176,-2.1875 -3.371,-0.8203 -6.008,-1.668 -7.961,-2.5508 -1.961,-0.8672 -3.484,-1.6875 -4.605,-2.4492 -1.274,-0.8789 -2.199,-1.7578 -2.754,-2.6367 -1.512,-1.8672 -2.274,-3.5469 -2.274,-5.0391 0,-1.4844 0.313,-2.9297 0.946,-4.3359 0.644,-1.2188 1.445,-2.1875 2.398,-2.8985 0.957,-0.6953 1.953,-1.2109 2.988,-1.5742 1.118,-0.4179 2.364,-0.6758 3.711,-0.7929 3.508,-0.2891 6.641,-0.2813 9.395,0.039 2.754,0.336 5.137,0.7422 7.121,1.2813 2.313,0.6328 4.363,1.4062 6.102,2.2851 1.437,0.8203 2.5,1.6133 3.175,2.4024 0.672,0.789 1.18,1.5156 1.493,2.1484 0.312,0.7031 0.48,1.4063 0.48,2.1016 v 19.5586" /><path
         id="path32"
         style="fill:#656263;fill-opacity:1;fill-rule:nonzero;stroke:none"
         d="m 544.691,26.3672 h -9.707 c 0.09,4.5625 0.137,8.8476 0.137,12.8906 v 5.1758 5 c 0,1.5742 -0.027,2.9883 -0.078,4.2852 -0.059,1.3007 -0.078,2.3554 -0.078,3.164 -0.078,1.9141 -0.352,3.8516 -0.82,5.7813 -0.508,1.6406 -1.231,3.332 -2.227,5.0898 -0.996,1.7578 -2.41,3.2539 -4.238,4.4727 -1.211,0.8203 -2.735,1.4843 -4.571,2.0117 -1.582,0.4687 -3.554,0.7812 -5.898,0.918 -2.363,0.1484 -5.215,-0.0704 -8.574,-0.6641 -1.504,-0.2266 -3.094,-0.6836 -4.766,-1.3867 -1.445,-0.6524 -3.066,-1.543 -4.863,-2.6758 -1.797,-1.1406 -3.613,-2.6563 -5.438,-4.5117 l -0.246,-39.5508 h -9.179 l -0.274,50.0703 h 10.059 v -4.2969 c 0.879,0.6328 1.925,1.25 3.125,1.836 0.957,0.4765 2.148,0.9531 3.515,1.4922 1.407,0.5273 2.91,0.9296 4.493,1.2187 2.238,0.3633 4.511,0.6484 6.835,0.8906 2.004,0.1641 4.122,0.2266 6.407,0.1641 2.265,-0.0469 4.425,-0.3516 6.523,-0.8672 1.524,-0.2344 3.02,-0.5859 4.551,-1.0625 1.348,-0.4609 2.793,-1.0664 4.297,-1.7891 1.535,-0.7343 2.949,-1.7109 4.297,-2.9375 1.211,-1.0468 2.285,-2.4336 3.254,-4.125 0.808,-1.4609 1.511,-3.3671 2.214,-5.6914 0.664,-2.3437 1.016,-5.1953 1.016,-8.5937 l 0.234,-26.3086" /><path
         id="path34"
         style="fill:#656263;fill-opacity:1;fill-rule:nonzero;stroke:none"
         d="m 559.027,53.7891 -0.351,45.0586 h 9.844 l 0.226,-26.4649 c 1.434,0.9844 3.074,1.8672 4.891,2.6367 1.601,0.6368 3.398,1.2305 5.468,1.7852 2.024,0.5586 4.317,0.8594 6.875,0.9219 3.086,0.125 6.211,-0.1289 9.317,-0.7813 2.637,-0.5859 5.488,-1.5937 8.574,-3.0312 3.067,-1.4336 5.957,-3.5821 8.672,-6.4532 0.879,-1.0351 1.719,-2.3046 2.5,-3.7578 0.645,-1.2343 1.289,-2.7656 1.934,-4.6015 0.625,-1.8438 1.074,-3.9649 1.328,-6.3672 0,-1.6875 -0.215,-3.4766 -0.606,-5.3516 -0.41,-1.582 -1.074,-3.3398 -2.051,-5.293 -0.957,-1.9648 -2.343,-3.9648 -4.179,-6.0039 l -0.723,-0.7929 c -1.426,-1.4063 -3.203,-2.7539 -5.371,-4.043 -3.125,-1.9844 -6.738,-3.3789 -10.879,-4.1992 -0.41,-0.0586 -0.82,-0.1172 -1.269,-0.1836 -0.45,-0.0508 -0.84,-0.0899 -1.27,-0.0899 -1.816,-0.1679 -3.594,-0.3125 -5.312,-0.4179 -1.707,-0.1289 -3.485,-0.1289 -5.332,0 -2.208,0.1054 -4.395,0.3008 -6.512,0.5547 -2.102,0.2656 -4.192,0.7109 -6.281,1.3672 v -1.504 h -9.864 z m 0.02,-18.211 -0.02,16.043 m 9.629,2.2656 -0.136,-21.6601 c 2.316,-0.9961 4.796,-1.6875 7.402,-2.0625 2.637,-0.3672 5.207,-0.5625 7.734,-0.5625 2.5,0 4.864,0.164 7.032,0.5234 2.207,0.3438 4.023,0.793 5.429,1.3125 2.578,1.0547 4.844,2.625 6.836,4.7266 1.68,1.8242 3.086,4.2851 4.297,7.4218 1.191,3.1133 1.641,7.2032 1.328,12.2344 -0.254,1.4453 -0.586,2.9375 -0.976,4.4531 -0.391,1.2891 -0.918,2.625 -1.563,4.0039 -0.625,1.3555 -1.406,2.6368 -2.363,3.8086 -1.289,1.3985 -2.715,2.6563 -4.297,3.7696 -1.367,0.9375 -3.047,1.7968 -5.078,2.5898 -2.031,0.7813 -4.336,1.1211 -6.875,1.0039 -2.469,0 -4.863,-0.3242 -7.168,-0.9648 -1.992,-0.5313 -4.063,-1.3985 -6.199,-2.6289 -2.161,-1.2305 -3.938,-3.0469 -5.383,-5.4297 V 55.5469 l -0.02,-1.6602" /><path
         id="path36"
         style="fill:#656263;fill-opacity:1;fill-rule:nonzero;stroke:none"
         d="m 647.973,26.4648 c -3.594,0.5274 -6.993,1.4649 -10.176,2.8008 -3.184,1.3399 -5.996,3.0977 -8.399,5.2657 -2.402,2.1562 -4.316,4.6875 -5.8,7.5859 -1.485,2.9023 -2.266,6.1445 -2.344,9.7656 -0.078,3.5664 0.664,6.9141 2.266,10.0508 1.621,3.1133 3.789,5.8477 6.582,8.1836 2.793,2.3437 6.093,4.1797 9.843,5.5391 3.75,1.3359 7.735,1.9804 11.973,1.9218 1.504,0 2.754,-0.0586 3.77,-0.1758 0.996,-0.1171 1.875,-0.2343 2.695,-0.3515 0.937,-0.1758 1.816,-0.3633 2.578,-0.5664 0.742,-0.1953 1.641,-0.4492 2.676,-0.7422 l 0.136,-0.0859 c 0.137,-0.0625 1.211,-0.5469 3.165,-1.4571 1.972,-0.8984 4.101,-2.3242 6.406,-4.2461 2.324,-1.9375 4.414,-4.3672 6.289,-7.3281 1.875,-2.9453 2.832,-6.5234 2.93,-10.7422 0.078,-3.3281 -0.586,-6.4922 -2.032,-9.4609 -1.445,-2.9766 -3.418,-5.6055 -5.937,-7.8906 -2.5,-2.2735 -5.449,-4.1485 -8.848,-5.6055 -3.418,-1.4727 -7.051,-2.3438 -10.957,-2.6289 z m -17.305,25.9571 c 0,-3.1446 0.566,-6.1328 1.68,-8.9453 1.132,-2.793 2.656,-5.2735 4.57,-7.3907 1.914,-2.1406 4.141,-3.8515 6.699,-5.1093 2.539,-1.25 5.313,-1.8828 8.262,-1.8828 2.969,0 5.742,0.6328 8.34,1.8828 2.597,1.2578 4.844,2.9687 6.777,5.1093 1.914,2.1172 3.438,4.5977 4.531,7.3907 1.153,2.8125 1.68,5.8007 1.68,8.9453 0,3.1562 -0.527,6.1015 -1.68,8.8594 -1.093,2.7421 -2.617,5.164 -4.531,7.2343 -1.933,2.0703 -4.18,3.711 -6.777,4.9219 -2.598,1.1797 -5.371,1.7891 -8.34,1.7891 -2.949,0 -5.723,-0.6094 -8.262,-1.7891 -2.558,-1.2109 -4.785,-2.8516 -6.699,-4.9219 -1.914,-2.0703 -3.438,-4.4922 -4.57,-7.2343 -1.114,-2.7579 -1.68,-5.7032 -1.68,-8.8594" /><path
         id="path38"
         style="fill:#656263;fill-opacity:1;fill-rule:nonzero;stroke:none"
         d="m 711.254,74.5117 c -3.301,-0.7031 -6.035,-1.6601 -8.184,-2.8906 -2.558,-1.4727 -4.648,-3.2422 -6.25,-5.3516 l 0.215,-39.9726 h -9.277 l -0.235,49.9726 9.434,0.0899 -0.137,-5.2656 c 2.637,2.0507 5.508,3.5351 8.633,4.4609 3.125,0.9375 5.977,1.5547 8.613,1.8594 3.106,0.3398 6.231,0.3984 9.336,0.1836 0.645,-0.0664 1.27,-0.1368 1.856,-0.1836 0.605,-0.0703 1.172,-0.1563 1.738,-0.2657 l -3.711,-2.8906 c -4.707,0.8789 -8.711,0.957 -12.031,0.2539" /><path
         id="path40"
         style="fill:#656263;fill-opacity:1;fill-rule:nonzero;stroke:none"
         d="m 793.148,26.3672 h -9.668 c 0.059,4.5625 0.118,8.8476 0.118,12.8906 v 5.1758 5 c 0,1.5742 -0.039,2.9883 -0.078,4.2852 -0.059,1.3007 -0.079,2.3554 -0.079,3.164 -0.097,1.9141 -0.371,3.8516 -0.839,5.7813 -0.489,1.6406 -1.211,3.332 -2.207,5.0898 -1.016,1.7578 -2.422,3.2539 -4.258,4.4727 -1.192,0.8203 -2.696,1.4843 -4.551,2.0117 -1.602,0.4687 -3.574,0.7812 -5.918,0.918 -2.344,0.1484 -5.215,-0.0704 -8.555,-0.6641 -1.523,-0.2266 -3.125,-0.6836 -4.785,-1.3867 -1.445,-0.6524 -3.066,-1.543 -4.844,-2.6758 -1.796,-1.1406 -3.593,-2.6563 -5.449,-4.5117 l -0.234,-39.5508 h -9.199 l -0.235,50.0703 h 10.059 v -4.2969 c 0.859,0.6328 1.894,1.25 3.086,1.836 0.957,0.4765 2.129,0.9531 3.554,1.4922 1.368,0.5273 2.872,0.9296 4.473,1.2187 2.227,0.3633 4.512,0.6484 6.816,0.8906 1.993,0.1641 4.122,0.2266 6.426,0.1641 2.266,-0.0469 4.434,-0.3516 6.524,-0.8672 1.504,-0.2344 3.008,-0.5859 4.511,-1.0625 1.368,-0.4609 2.813,-1.0664 4.336,-1.7891 1.504,-0.7343 2.95,-1.7109 4.297,-2.9375 1.211,-1.0468 2.285,-2.4336 3.242,-4.125 0.782,-1.4609 1.524,-3.3671 2.207,-5.6914 0.684,-2.3437 1.016,-5.1953 1.016,-8.5937 l 0.234,-26.3086" /><path
         id="path42"
         style="fill:#656263;fill-opacity:1;fill-rule:nonzero;stroke:none"
         d="m 806.195,34.6094 c 0.41,-0.5274 0.996,-1.0742 1.739,-1.6602 0.742,-0.5976 1.777,-1.1445 3.066,-1.6679 1.523,-0.7032 3.301,-1.2618 5.391,-1.6641 1.738,-0.3594 3.847,-0.6133 6.328,-0.7891 2.48,-0.1875 5.254,-0.0781 8.379,0.3438 2.636,0.5859 4.746,1.4609 6.347,2.6328 0.723,0.5195 1.328,1.125 1.836,1.7969 0.547,0.6757 0.86,1.4453 1.035,2.3281 0.157,0.875 0.079,1.8828 -0.234,3.0156 -0.332,1.1406 -0.957,2.4219 -1.914,3.8203 -0.723,0.875 -1.68,1.7578 -2.871,2.625 -1.055,0.7617 -2.422,1.5938 -4.141,2.461 -1.718,0.8672 -3.847,1.7187 -6.406,2.539 -2.773,1.0547 -5.371,2.0703 -7.773,3.0664 -2.071,0.8203 -4.122,1.6407 -6.114,2.461 -1.992,0.8008 -3.418,1.4648 -4.297,1.9258 -1.347,0.5859 -2.578,1.2773 -3.593,2.1171 -0.879,0.6954 -1.739,1.543 -2.578,2.5313 -0.821,0.9922 -1.329,2.125 -1.485,3.4141 -0.097,0.5859 -0.039,1.4687 0.117,2.6406 0.157,1.1601 0.743,2.3594 1.739,3.5937 0.996,1.2266 2.636,2.3516 4.902,3.3672 2.266,1.0235 5.488,1.6875 9.648,1.9727 1.993,0.1758 4.024,0.2461 6.094,0.1758 1.817,-0.0586 3.828,-0.2032 5.977,-0.4297 2.148,-0.2422 4.258,-0.6836 6.347,-1.3282 1.348,-0.3515 2.696,-0.8125 4.063,-1.3984 1.133,-0.457 2.324,-1.082 3.574,-1.8359 1.309,-0.7696 2.383,-1.668 3.242,-2.7227 l -6.582,-0.5273 -0.468,0.789 c -1.133,1.3516 -2.188,2.2578 -3.165,2.7266 -0.996,0.4609 -1.543,0.7226 -1.64,0.7812 -1.113,0.4766 -2.422,0.8594 -3.887,1.1914 -1.465,0.3243 -3.242,0.5665 -5.312,0.7422 -1.446,0.1172 -2.871,0.0977 -4.317,-0.0976 -1.191,-0.1094 -2.461,-0.3906 -3.769,-0.8203 -1.309,-0.4375 -2.442,-1.0743 -3.399,-1.8946 -1.211,-0.8711 -2.09,-1.8359 -2.636,-2.8906 -0.469,-0.9375 -0.762,-2.0039 -0.782,-3.2031 -0.039,-1.1914 0.567,-2.5274 1.856,-3.9844 0.488,-0.5859 1.172,-1.1601 2.051,-1.7461 0.683,-0.539 1.582,-1.0859 2.617,-1.6719 1.035,-0.5859 2.343,-1.1406 3.945,-1.6601 1.348,-0.418 2.988,-0.957 4.902,-1.582 1.602,-0.5274 3.536,-1.1915 5.801,-1.9727 2.285,-0.8008 4.922,-1.6797 7.969,-2.6758 2.324,-0.9961 4.433,-2.1289 6.328,-3.418 1.602,-1.1718 3.066,-2.5585 4.375,-4.1679 1.328,-1.6016 1.953,-3.4883 1.875,-5.6563 0.078,-1.1133 -0.059,-2.1875 -0.371,-3.2422 -0.254,-0.8789 -0.703,-1.7968 -1.367,-2.7539 -0.684,-0.9765 -1.699,-1.8164 -3.067,-2.5 -0.957,-0.5351 -1.992,-0.9961 -3.105,-1.4062 -1.035,-0.3516 -2.227,-0.7227 -3.594,-1.1055 -1.348,-0.3789 -2.949,-0.6328 -4.785,-0.7422 -3.75,-0.289 -7.422,-0.3593 -10.996,-0.1836 -3.047,0.1368 -6.309,0.4297 -9.766,0.9258 -3.457,0.5 -6.484,1.3594 -9.043,2.5899 -0.625,0.3515 -1.308,0.7617 -2.011,1.2304 -0.645,0.4102 -1.29,0.918 -1.934,1.5313 -0.645,0.6172 -1.27,1.3906 -1.914,2.3281 l 7.773,-0.2656" /></g></g></svg>
